<svg width="178" height="178" viewBox="0 0 178 178" fill="none" xmlns="http://www.w3.org/2000/svg">
<circle cx="89" cy="89" r="89" fill="#FFFF00"/>
<path d="M60.6406 130.188C56.9844 130.188 53.8906 129.656 51.3594 128.594C48.8594 127.562 46.9531 126.016 45.6406 123.953C44.3594 121.891 43.7188 119.344 43.7188 116.312V100.797C43.7188 98.3281 43.3281 96.3281 42.5469 94.7969C41.7656 93.2344 40.5625 92.1094 38.9375 91.4219C37.3125 90.7031 35.2344 90.3438 32.7031 90.3438V86.2656C35.2344 86.2656 37.3125 85.9219 38.9375 85.2344C40.5625 84.5469 41.7656 83.4375 42.5469 81.9062C43.3281 80.375 43.7188 78.3438 43.7188 75.8125V60.25C43.7188 57.2188 44.375 54.6875 45.6875 52.6562C47.0312 50.625 48.9531 49.0938 51.4531 48.0625C53.9844 47 57.0469 46.4688 60.6406 46.4688V50.5469C57.9219 50.5781 55.6562 50.9531 53.8438 51.6719C52.0312 52.3906 50.6719 53.5156 49.7656 55.0469C48.8594 56.5469 48.4062 58.4844 48.4062 60.8594V76.2344C48.4062 79.4844 47.7344 82.1406 46.3906 84.2031C45.0781 86.2344 42.875 87.5312 39.7812 88.0938V88.4688C42.9062 89 45.125 90.2969 46.4375 92.3594C47.75 94.3906 48.4062 97.0469 48.4062 100.328V115.938C48.4062 118.281 48.8438 120.188 49.7188 121.656C50.625 123.156 51.9844 124.25 53.7969 124.938C55.6094 125.656 57.8906 126.031 60.6406 126.062V130.188ZM117.266 130.188V126.062C119.984 126.031 122.25 125.656 124.062 124.938C125.875 124.219 127.219 123.109 128.094 121.609C129 120.141 129.453 118.25 129.453 115.938V100.375C129.453 97.0938 130.125 94.4375 131.469 92.4062C132.812 90.3438 135.031 89.0469 138.125 88.5156V88.1406C135.031 87.5781 132.812 86.2812 131.469 84.25C130.125 82.1875 129.453 79.5312 129.453 76.2812V60.8594C129.453 58.4531 129 56.5 128.094 55C127.219 53.4688 125.875 52.3438 124.062 51.625C122.281 50.9062 120.016 50.5469 117.266 50.5469V46.4688C120.922 46.4688 124 47 126.5 48.0625C129.031 49.0938 130.953 50.6406 132.266 52.7031C133.578 54.7344 134.234 57.2656 134.234 60.2969V75.7656C134.234 78.2969 134.609 80.3438 135.359 81.9062C136.141 83.4375 137.344 84.5469 138.969 85.2344C140.594 85.9219 142.672 86.2656 145.203 86.2656V90.3438C142.672 90.3438 140.594 90.7031 138.969 91.4219C137.344 92.1094 136.141 93.2188 135.359 94.75C134.609 96.2812 134.234 98.2812 134.234 100.75V116.359C134.234 119.359 133.562 121.891 132.219 123.953C130.875 126.016 128.938 127.562 126.406 128.594C123.906 129.656 120.859 130.188 117.266 130.188Z" fill="black"/>
<path d="M62.1505 105.704V74.096C62.1505 70.16 63.5185 67.28 66.2545 65.456C69.0385 63.632 72.8785 62.72 77.7745 62.72C82.6705 62.72 86.4145 63.992 89.0065 66.536C91.5505 63.992 95.2705 62.72 100.166 62.72C110.63 62.72 115.862 66.512 115.862 74.096V105.704C115.862 106.808 114.902 107.36 112.982 107.36C111.062 107.36 110.102 106.808 110.102 105.704V73.376C110.102 69.632 107.054 67.76 100.958 67.76C94.9105 67.76 91.8865 69.68 91.8865 73.52V105.704C91.8865 106.808 90.9265 107.36 89.0065 107.36C87.0865 107.36 86.1265 106.808 86.1265 105.704V73.376C86.1265 69.632 83.0785 67.76 76.9825 67.76C70.9345 67.76 67.9105 69.632 67.9105 73.376V105.704C67.9105 106.808 66.9505 107.36 65.0305 107.36C63.1105 107.36 62.1505 106.808 62.1505 105.704Z" fill="black"/>
</svg>
