<svg width="178" height="178" viewBox="0 0 178 178" fill="none" xmlns="http://www.w3.org/2000/svg">
<circle cx="89" cy="89" r="89" fill="#FFFF00"/>
<path d="M54.7324 142.352C50.3145 142.352 46.5762 141.71 43.5176 140.426C40.4967 139.18 38.1934 137.311 36.6074 134.818C35.0592 132.326 34.2852 129.249 34.2852 125.586V106.838C34.2852 103.855 33.8132 101.438 32.8691 99.5879C31.9251 97.6999 30.4714 96.3405 28.5078 95.5098C26.5443 94.6413 24.0332 94.207 20.9746 94.207V89.2793C24.0332 89.2793 26.5443 88.8639 28.5078 88.0332C30.4714 87.2025 31.9251 85.862 32.8691 84.0117C33.8132 82.1615 34.2852 79.707 34.2852 76.6484V57.8438C34.2852 54.181 35.0781 51.1224 36.6641 48.668C38.2878 46.2135 40.61 44.3633 43.6309 43.1172C46.6895 41.8333 50.39 41.1914 54.7324 41.1914V46.1191C51.4473 46.1569 48.7096 46.61 46.5195 47.4785C44.3294 48.347 42.6868 49.7064 41.5918 51.5566C40.4967 53.3691 39.9492 55.7103 39.9492 58.5801V77.1582C39.9492 81.0853 39.1374 84.2949 37.5137 86.7871C35.9277 89.2415 33.2656 90.8086 29.5273 91.4883V91.9414C33.3034 92.5833 35.9844 94.1504 37.5703 96.6426C39.1562 99.097 39.9492 102.307 39.9492 106.271V125.133C39.9492 127.965 40.4779 130.268 41.5352 132.043C42.6302 133.855 44.2728 135.177 46.4629 136.008C48.653 136.876 51.4095 137.329 54.7324 137.367V142.352ZM123.154 142.352V137.367C126.439 137.329 129.177 136.876 131.367 136.008C133.557 135.139 135.181 133.799 136.238 131.986C137.333 130.212 137.881 127.927 137.881 125.133V106.328C137.881 102.363 138.693 99.1536 140.316 96.6992C141.94 94.207 144.621 92.64 148.359 91.998V91.5449C144.621 90.8652 141.94 89.2982 140.316 86.8438C138.693 84.3516 137.881 81.1419 137.881 77.2148V58.5801C137.881 55.6725 137.333 53.3125 136.238 51.5C135.181 49.6497 133.557 48.2904 131.367 47.4219C129.215 46.5534 126.477 46.1191 123.154 46.1191V41.1914C127.572 41.1914 131.292 41.8333 134.312 43.1172C137.371 44.3633 139.693 46.2324 141.279 48.7246C142.865 51.179 143.658 54.2376 143.658 57.9004V76.5918C143.658 79.6504 144.111 82.1237 145.018 84.0117C145.962 85.862 147.415 87.2025 149.379 88.0332C151.342 88.8639 153.854 89.2793 156.912 89.2793V94.207C153.854 94.207 151.342 94.6413 149.379 95.5098C147.415 96.3405 145.962 97.681 145.018 99.5312C144.111 101.382 143.658 103.798 143.658 106.781V125.643C143.658 129.268 142.846 132.326 141.223 134.818C139.599 137.311 137.258 139.18 134.199 140.426C131.178 141.71 127.497 142.352 123.154 142.352Z" fill="black"/>
<path d="M53.0989 119.272V77.128C53.0989 71.88 54.9229 68.04 58.5709 65.608C62.2829 63.176 67.4029 61.96 73.9309 61.96C80.4589 61.96 85.4509 63.656 88.9069 67.048C92.2989 63.656 97.2589 61.96 103.787 61.96C117.739 61.96 124.715 67.016 124.715 77.128V119.272C124.715 120.744 123.435 121.48 120.875 121.48C118.315 121.48 117.035 120.744 117.035 119.272V76.168C117.035 71.176 112.971 68.68 104.843 68.68C96.7789 68.68 92.7469 71.24 92.7469 76.36V119.272C92.7469 120.744 91.4669 121.48 88.9069 121.48C86.3469 121.48 85.0669 120.744 85.0669 119.272V76.168C85.0669 71.176 81.0029 68.68 72.8749 68.68C64.8109 68.68 60.7789 71.176 60.7789 76.168V119.272C60.7789 120.744 59.4989 121.48 56.9389 121.48C54.3789 121.48 53.0989 120.744 53.0989 119.272Z" fill="black"/>
</svg>
