<svg width="152" height="152" viewBox="0 0 152 152" fill="none" xmlns="http://www.w3.org/2000/svg">
<circle cx="76" cy="76" r="76" fill="#ECECEC"/>
<path d="M52.6406 114.188C48.9844 114.188 45.8906 113.656 43.3594 112.594C40.8594 111.562 38.9531 110.016 37.6406 107.953C36.3594 105.891 35.7188 103.344 35.7188 100.312V84.7969C35.7188 82.3281 35.3281 80.3281 34.5469 78.7969C33.7656 77.2344 32.5625 76.1094 30.9375 75.4219C29.3125 74.7031 27.2344 74.3438 24.7031 74.3438V70.2656C27.2344 70.2656 29.3125 69.9219 30.9375 69.2344C32.5625 68.5469 33.7656 67.4375 34.5469 65.9062C35.3281 64.375 35.7188 62.3438 35.7188 59.8125V44.25C35.7188 41.2188 36.375 38.6875 37.6875 36.6562C39.0312 34.625 40.9531 33.0938 43.4531 32.0625C45.9844 31 49.0469 30.4688 52.6406 30.4688V34.5469C49.9219 34.5781 47.6562 34.9531 45.8438 35.6719C44.0312 36.3906 42.6719 37.5156 41.7656 39.0469C40.8594 40.5469 40.4062 42.4844 40.4062 44.8594V60.2344C40.4062 63.4844 39.7344 66.1406 38.3906 68.2031C37.0781 70.2344 34.875 71.5312 31.7812 72.0938V72.4688C34.9062 73 37.125 74.2969 38.4375 76.3594C39.75 78.3906 40.4062 81.0469 40.4062 84.3281V99.9375C40.4062 102.281 40.8438 104.188 41.7188 105.656C42.625 107.156 43.9844 108.25 45.7969 108.938C47.6094 109.656 49.8906 110.031 52.6406 110.062V114.188ZM109.266 114.188V110.062C111.984 110.031 114.25 109.656 116.062 108.938C117.875 108.219 119.219 107.109 120.094 105.609C121 104.141 121.453 102.25 121.453 99.9375V84.375C121.453 81.0938 122.125 78.4375 123.469 76.4062C124.812 74.3438 127.031 73.0469 130.125 72.5156V72.1406C127.031 71.5781 124.812 70.2812 123.469 68.25C122.125 66.1875 121.453 63.5312 121.453 60.2812V44.8594C121.453 42.4531 121 40.5 120.094 39C119.219 37.4688 117.875 36.3438 116.062 35.625C114.281 34.9062 112.016 34.5469 109.266 34.5469V30.4688C112.922 30.4688 116 31 118.5 32.0625C121.031 33.0938 122.953 34.6406 124.266 36.7031C125.578 38.7344 126.234 41.2656 126.234 44.2969V59.7656C126.234 62.2969 126.609 64.3438 127.359 65.9062C128.141 67.4375 129.344 68.5469 130.969 69.2344C132.594 69.9219 134.672 70.2656 137.203 70.2656V74.3438C134.672 74.3438 132.594 74.7031 130.969 75.4219C129.344 76.1094 128.141 77.2188 127.359 78.75C126.609 80.2812 126.234 82.2812 126.234 84.75V100.359C126.234 103.359 125.562 105.891 124.219 107.953C122.875 110.016 120.938 111.562 118.406 112.594C115.906 113.656 112.859 114.188 109.266 114.188Z" fill="#FFFF00"/>
<path d="M54.1505 89.704V58.096C54.1505 54.16 55.5185 51.28 58.2545 49.456C61.0385 47.632 64.8785 46.72 69.7745 46.72C74.6705 46.72 78.4145 47.992 81.0065 50.536C83.5505 47.992 87.2705 46.72 92.1665 46.72C102.63 46.72 107.862 50.512 107.862 58.096V89.704C107.862 90.808 106.902 91.36 104.982 91.36C103.062 91.36 102.102 90.808 102.102 89.704V57.376C102.102 53.632 99.0545 51.76 92.9585 51.76C86.9105 51.76 83.8865 53.68 83.8865 57.52V89.704C83.8865 90.808 82.9265 91.36 81.0065 91.36C79.0865 91.36 78.1265 90.808 78.1265 89.704V57.376C78.1265 53.632 75.0785 51.76 68.9825 51.76C62.9345 51.76 59.9105 53.632 59.9105 57.376V89.704C59.9105 90.808 58.9505 91.36 57.0305 91.36C55.1105 91.36 54.1505 90.808 54.1505 89.704Z" fill="#FFFF00"/>
<path d="M47.6406 118.188C43.9844 118.188 40.8906 117.656 38.3594 116.594C35.8594 115.562 33.9531 114.016 32.6406 111.953C31.3594 109.891 30.7188 107.344 30.7188 104.312V88.7969C30.7188 86.3281 30.3281 84.3281 29.5469 82.7969C28.7656 81.2344 27.5625 80.1094 25.9375 79.4219C24.3125 78.7031 22.2344 78.3438 19.7031 78.3438V74.2656C22.2344 74.2656 24.3125 73.9219 25.9375 73.2344C27.5625 72.5469 28.7656 71.4375 29.5469 69.9062C30.3281 68.375 30.7188 66.3438 30.7188 63.8125V48.25C30.7188 45.2188 31.375 42.6875 32.6875 40.6562C34.0312 38.625 35.9531 37.0938 38.4531 36.0625C40.9844 35 44.0469 34.4688 47.6406 34.4688V38.5469C44.9219 38.5781 42.6562 38.9531 40.8438 39.6719C39.0312 40.3906 37.6719 41.5156 36.7656 43.0469C35.8594 44.5469 35.4062 46.4844 35.4062 48.8594V64.2344C35.4062 67.4844 34.7344 70.1406 33.3906 72.2031C32.0781 74.2344 29.875 75.5312 26.7812 76.0938V76.4688C29.9062 77 32.125 78.2969 33.4375 80.3594C34.75 82.3906 35.4062 85.0469 35.4062 88.3281V103.938C35.4062 106.281 35.8438 108.188 36.7188 109.656C37.625 111.156 38.9844 112.25 40.7969 112.938C42.6094 113.656 44.8906 114.031 47.6406 114.062V118.188ZM104.266 118.188V114.062C106.984 114.031 109.25 113.656 111.062 112.938C112.875 112.219 114.219 111.109 115.094 109.609C116 108.141 116.453 106.25 116.453 103.938V88.375C116.453 85.0938 117.125 82.4375 118.469 80.4062C119.812 78.3438 122.031 77.0469 125.125 76.5156V76.1406C122.031 75.5781 119.812 74.2812 118.469 72.25C117.125 70.1875 116.453 67.5312 116.453 64.2812V48.8594C116.453 46.4531 116 44.5 115.094 43C114.219 41.4688 112.875 40.3438 111.062 39.625C109.281 38.9062 107.016 38.5469 104.266 38.5469V34.4688C107.922 34.4688 111 35 113.5 36.0625C116.031 37.0938 117.953 38.6406 119.266 40.7031C120.578 42.7344 121.234 45.2656 121.234 48.2969V63.7656C121.234 66.2969 121.609 68.3438 122.359 69.9062C123.141 71.4375 124.344 72.5469 125.969 73.2344C127.594 73.9219 129.672 74.2656 132.203 74.2656V78.3438C129.672 78.3438 127.594 78.7031 125.969 79.4219C124.344 80.1094 123.141 81.2188 122.359 82.75C121.609 84.2812 121.234 86.2812 121.234 88.75V104.359C121.234 107.359 120.562 109.891 119.219 111.953C117.875 114.016 115.938 115.562 113.406 116.594C110.906 117.656 107.859 118.188 104.266 118.188Z" fill="black"/>
<path d="M49.1505 93.704V62.096C49.1505 58.16 50.5185 55.28 53.2545 53.456C56.0385 51.632 59.8785 50.72 64.7745 50.72C69.6705 50.72 73.4145 51.992 76.0065 54.536C78.5505 51.992 82.2705 50.72 87.1665 50.72C97.6305 50.72 102.862 54.512 102.862 62.096V93.704C102.862 94.808 101.902 95.36 99.9825 95.36C98.0625 95.36 97.1025 94.808 97.1025 93.704V61.376C97.1025 57.632 94.0545 55.76 87.9585 55.76C81.9105 55.76 78.8865 57.68 78.8865 61.52V93.704C78.8865 94.808 77.9265 95.36 76.0065 95.36C74.0865 95.36 73.1265 94.808 73.1265 93.704V61.376C73.1265 57.632 70.0785 55.76 63.9825 55.76C57.9345 55.76 54.9105 57.632 54.9105 61.376V93.704C54.9105 94.808 53.9505 95.36 52.0305 95.36C50.1105 95.36 49.1505 94.808 49.1505 93.704Z" fill="black"/>
</svg>
