<svg className={styles.icon} viewBox="0 0 123 119" fill="none" xmlns="http://www.w3.org/2000/svg">
<path d="M35.6406 110.188C31.9844 110.188 28.8906 109.656 26.3594 108.594C23.8594 107.562 21.9531 106.016 20.6406 103.953C19.3594 101.891 18.7188 99.3438 18.7188 96.3125V80.7969C18.7188 78.3281 18.3281 76.3281 17.5469 74.7969C16.7656 73.2344 15.5625 72.1094 13.9375 71.4219C12.3125 70.7031 10.2344 70.3438 7.70312 70.3438V66.2656C10.2344 66.2656 12.3125 65.9219 13.9375 65.2344C15.5625 64.5469 16.7656 63.4375 17.5469 61.9062C18.3281 60.375 18.7188 58.3438 18.7188 55.8125V40.25C18.7188 37.2188 19.375 34.6875 20.6875 32.6562C22.0312 30.625 23.9531 29.0938 26.4531 28.0625C28.9844 27 32.0469 26.4688 35.6406 26.4688V30.5469C32.9219 30.5781 30.6562 30.9531 28.8438 31.6719C27.0312 32.3906 25.6719 33.5156 24.7656 35.0469C23.8594 36.5469 23.4062 38.4844 23.4062 40.8594V56.2344C23.4062 59.4844 22.7344 62.1406 21.3906 64.2031C20.0781 66.2344 17.875 67.5312 14.7812 68.0938V68.4688C17.9062 69 20.125 70.2969 21.4375 72.3594C22.75 74.3906 23.4062 77.0469 23.4062 80.3281V95.9375C23.4062 98.2812 23.8438 100.188 24.7188 101.656C25.625 103.156 26.9844 104.25 28.7969 104.938C30.6094 105.656 32.8906 106.031 35.6406 106.062V110.188ZM92.2656 110.188V106.062C94.9844 106.031 97.25 105.656 99.0625 104.938C100.875 104.219 102.219 103.109 103.094 101.609C104 100.141 104.453 98.25 104.453 95.9375V80.375C104.453 77.0938 105.125 74.4375 106.469 72.4062C107.812 70.3438 110.031 69.0469 113.125 68.5156V68.1406C110.031 67.5781 107.812 66.2812 106.469 64.25C105.125 62.1875 104.453 59.5312 104.453 56.2812V40.8594C104.453 38.4531 104 36.5 103.094 35C102.219 33.4688 100.875 32.3438 99.0625 31.625C97.2812 30.9063 95.0156 30.5469 92.2656 30.5469V26.4688C95.9219 26.4688 99 27 101.5 28.0625C104.031 29.0938 105.953 30.6406 107.266 32.7031C108.578 34.7344 109.234 37.2656 109.234 40.2969V55.7656C109.234 58.2969 109.609 60.3438 110.359 61.9062C111.141 63.4375 112.344 64.5469 113.969 65.2344C115.594 65.9219 117.672 66.2656 120.203 66.2656V70.3438C117.672 70.3438 115.594 70.7031 113.969 71.4219C112.344 72.1094 111.141 73.2188 110.359 74.75C109.609 76.2812 109.234 78.2812 109.234 80.75V96.3594C109.234 99.3594 108.562 101.891 107.219 103.953C105.875 106.016 103.938 107.562 101.406 108.594C98.9062 109.656 95.8594 110.188 92.2656 110.188Z" fill="#FFFF00"/>
<path d="M37.1505 85.704V54.096C37.1505 50.16 38.5185 47.28 41.2545 45.456C44.0385 43.632 47.8785 42.72 52.7745 42.72C57.6705 42.72 61.4145 43.992 64.0065 46.536C66.5505 43.992 70.2705 42.72 75.1665 42.72C85.6305 42.72 90.8625 46.512 90.8625 54.096V85.704C90.8625 86.808 89.9025 87.36 87.9825 87.36C86.0625 87.36 85.1025 86.808 85.1025 85.704V53.376C85.1025 49.632 82.0545 47.76 75.9585 47.76C69.9105 47.76 66.8865 49.68 66.8865 53.52V85.704C66.8865 86.808 65.9265 87.36 64.0065 87.36C62.0865 87.36 61.1265 86.808 61.1265 85.704V53.376C61.1265 49.632 58.0785 47.76 51.9825 47.76C45.9345 47.76 42.9105 49.632 42.9105 53.376V85.704C42.9105 86.808 41.9505 87.36 40.0305 87.36C38.1105 87.36 37.1505 86.808 37.1505 85.704Z" fill="#FFFF00"/>
<path d="M30.6406 114.188C26.9844 114.188 23.8906 113.656 21.3594 112.594C18.8594 111.562 16.9531 110.016 15.6406 107.953C14.3594 105.891 13.7188 103.344 13.7188 100.312V84.7969C13.7188 82.3281 13.3281 80.3281 12.5469 78.7969C11.7656 77.2344 10.5625 76.1094 8.9375 75.4219C7.3125 74.7031 5.23438 74.3438 2.70312 74.3438V70.2656C5.23438 70.2656 7.3125 69.9219 8.9375 69.2344C10.5625 68.5469 11.7656 67.4375 12.5469 65.9062C13.3281 64.375 13.7188 62.3438 13.7188 59.8125V44.25C13.7188 41.2188 14.375 38.6875 15.6875 36.6562C17.0312 34.625 18.9531 33.0938 21.4531 32.0625C23.9844 31 27.0469 30.4688 30.6406 30.4688V34.5469C27.9219 34.5781 25.6562 34.9531 23.8438 35.6719C22.0312 36.3906 20.6719 37.5156 19.7656 39.0469C18.8594 40.5469 18.4062 42.4844 18.4062 44.8594V60.2344C18.4062 63.4844 17.7344 66.1406 16.3906 68.2031C15.0781 70.2344 12.875 71.5312 9.78125 72.0938V72.4688C12.9062 73 15.125 74.2969 16.4375 76.3594C17.75 78.3906 18.4062 81.0469 18.4062 84.3281V99.9375C18.4062 102.281 18.8438 104.188 19.7188 105.656C20.625 107.156 21.9844 108.25 23.7969 108.938C25.6094 109.656 27.8906 110.031 30.6406 110.062V114.188ZM87.2656 114.188V110.062C89.9844 110.031 92.25 109.656 94.0625 108.938C95.875 108.219 97.2188 107.109 98.0938 105.609C99 104.141 99.4531 102.25 99.4531 99.9375V84.375C99.4531 81.0938 100.125 78.4375 101.469 76.4062C102.812 74.3438 105.031 73.0469 108.125 72.5156V72.1406C105.031 71.5781 102.812 70.2812 101.469 68.25C100.125 66.1875 99.4531 63.5312 99.4531 60.2812V44.8594C99.4531 42.4531 99 40.5 98.0938 39C97.2188 37.4688 95.875 36.3438 94.0625 35.625C92.2812 34.9062 90.0156 34.5469 87.2656 34.5469V30.4688C90.9219 30.4688 94 31 96.5 32.0625C99.0312 33.0938 100.953 34.6406 102.266 36.7031C103.578 38.7344 104.234 41.2656 104.234 44.2969V59.7656C104.234 62.2969 104.609 64.3438 105.359 65.9062C106.141 67.4375 107.344 68.5469 108.969 69.2344C110.594 69.9219 112.672 70.2656 115.203 70.2656V74.3438C112.672 74.3438 110.594 74.7031 108.969 75.4219C107.344 76.1094 106.141 77.2188 105.359 78.75C104.609 80.2812 104.234 82.2812 104.234 84.75V100.359C104.234 103.359 103.562 105.891 102.219 107.953C100.875 110.016 98.9375 111.562 96.4062 112.594C93.9062 113.656 90.8594 114.188 87.2656 114.188Z" fill="black"/>
<path d="M32.1505 89.704V58.096C32.1505 54.16 33.5185 51.28 36.2545 49.456C39.0385 47.632 42.8785 46.72 47.7745 46.72C52.6705 46.72 56.4145 47.992 59.0065 50.536C61.5505 47.992 65.2705 46.72 70.1665 46.72C80.6305 46.72 85.8625 50.512 85.8625 58.096V89.704C85.8625 90.808 84.9025 91.36 82.9825 91.36C81.0625 91.36 80.1025 90.808 80.1025 89.704V57.376C80.1025 53.632 77.0545 51.76 70.9585 51.76C64.9105 51.76 61.8865 53.68 61.8865 57.52V89.704C61.8865 90.808 60.9265 91.36 59.0065 91.36C57.0865 91.36 56.1265 90.808 56.1265 89.704V57.376C56.1265 53.632 53.0785 51.76 46.9825 51.76C40.9345 51.76 37.9105 53.632 37.9105 57.376V89.704C37.9105 90.808 36.9505 91.36 35.0305 91.36C33.1105 91.36 32.1505 90.808 32.1505 89.704Z" fill="black"/>
</svg>
