<svg width="118" height="131" viewBox="0 0 118 131" fill="none" xmlns="http://www.w3.org/2000/svg">
<path d="M30.6406 118.188C26.9844 118.188 23.8906 117.656 21.3594 116.594C18.8594 115.562 16.9531 114.016 15.6406 111.953C14.3594 109.891 13.7188 107.344 13.7188 104.312V88.7969C13.7188 86.3281 13.3281 84.3281 12.5469 82.7969C11.7656 81.2344 10.5625 80.1094 8.9375 79.4219C7.3125 78.7031 5.23438 78.3438 2.70312 78.3438V74.2656C5.23438 74.2656 7.3125 73.9219 8.9375 73.2344C10.5625 72.5469 11.7656 71.4375 12.5469 69.9062C13.3281 68.375 13.7188 66.3438 13.7188 63.8125V48.25C13.7188 45.2188 14.375 42.6875 15.6875 40.6562C17.0312 38.625 18.9531 37.0938 21.4531 36.0625C23.9844 35 27.0469 34.4688 30.6406 34.4688V38.5469C27.9219 38.5781 25.6562 38.9531 23.8438 39.6719C22.0312 40.3906 20.6719 41.5156 19.7656 43.0469C18.8594 44.5469 18.4062 46.4844 18.4062 48.8594V64.2344C18.4062 67.4844 17.7344 70.1406 16.3906 72.2031C15.0781 74.2344 12.875 75.5312 9.78125 76.0938V76.4688C12.9062 77 15.125 78.2969 16.4375 80.3594C17.75 82.3906 18.4062 85.0469 18.4062 88.3281V103.938C18.4062 106.281 18.8438 108.188 19.7188 109.656C20.625 111.156 21.9844 112.25 23.7969 112.938C25.6094 113.656 27.8906 114.031 30.6406 114.062V118.188ZM87.2656 118.188V114.062C89.9844 114.031 92.25 113.656 94.0625 112.938C95.875 112.219 97.2188 111.109 98.0938 109.609C99 108.141 99.4531 106.25 99.4531 103.938V88.375C99.4531 85.0938 100.125 82.4375 101.469 80.4062C102.812 78.3438 105.031 77.0469 108.125 76.5156V76.1406C105.031 75.5781 102.812 74.2812 101.469 72.25C100.125 70.1875 99.4531 67.5312 99.4531 64.2812V48.8594C99.4531 46.4531 99 44.5 98.0938 43C97.2188 41.4688 95.875 40.3438 94.0625 39.625C92.2812 38.9062 90.0156 38.5469 87.2656 38.5469V34.4688C90.9219 34.4688 94 35 96.5 36.0625C99.0312 37.0938 100.953 38.6406 102.266 40.7031C103.578 42.7344 104.234 45.2656 104.234 48.2969V63.7656C104.234 66.2969 104.609 68.3438 105.359 69.9062C106.141 71.4375 107.344 72.5469 108.969 73.2344C110.594 73.9219 112.672 74.2656 115.203 74.2656V78.3438C112.672 78.3438 110.594 78.7031 108.969 79.4219C107.344 80.1094 106.141 81.2188 105.359 82.75C104.609 84.2812 104.234 86.2812 104.234 88.75V104.359C104.234 107.359 103.562 109.891 102.219 111.953C100.875 114.016 98.9375 115.562 96.4062 116.594C93.9062 117.656 90.8594 118.188 87.2656 118.188Z" fill="white"/>
<path d="M31.1505 95.704V64.096C31.1505 60.16 32.5185 57.28 35.2545 55.456C38.0385 53.632 41.8785 52.72 46.7745 52.72C51.6705 52.72 55.4145 53.992 58.0065 56.536C60.5505 53.992 64.2705 52.72 69.1665 52.72C79.6305 52.72 84.8625 56.512 84.8625 64.096V95.704C84.8625 96.808 83.9025 97.36 81.9825 97.36C80.0625 97.36 79.1025 96.808 79.1025 95.704V63.376C79.1025 59.632 76.0545 57.76 69.9585 57.76C63.9105 57.76 60.8865 59.68 60.8865 63.52V95.704C60.8865 96.808 59.9265 97.36 58.0065 97.36C56.0865 97.36 55.1265 96.808 55.1265 95.704V63.376C55.1265 59.632 52.0785 57.76 45.9825 57.76C39.9345 57.76 36.9105 59.632 36.9105 63.376V95.704C36.9105 96.808 35.9505 97.36 34.0305 97.36C32.1105 97.36 31.1505 96.808 31.1505 95.704Z" fill="white"/>
</svg>
